<svg width="1920" height="1080" viewBox="0 0 1920 1080" fill="none" xmlns="http://www.w3.org/2000/svg">
<g clip-path="url(#clip0)">
<rect width="1920" height="1080" fill="url(#paint0_linear)"/>
<path opacity="0.2" d="M367.128 467.214C322.829 503.32 279.911 543.723 252.946 594.694C213.29 669.634 213.901 763.903 254.597 833.39C289.053 892.306 347.159 930.668 396.87 976.179C458.116 1032.23 507.668 1100.53 554.566 1169.99C579.766 1207.29 605.176 1245.98 641.982 1270.97C693.087 1305.65 761.985 1309.08 822.155 1286.81C882.325 1264.55 933.831 1218.58 970.816 1163.94C990.498 1134.87 1006.78 1102.02 1009.13 1067.46C1011.61 1030.89 998.367 995.544 1001.12 958.979C1003.66 925.094 1019.79 893.044 1038.64 864.231C1063.24 826.611 1093.03 792.647 1127.11 763.34C1165.75 730.163 1209.25 703.692 1248.01 670.784C1286.77 637.876 1321.85 596.21 1333.99 546.642C1345.4 500.044 1335.37 452.264 1323.2 407.375C1303.37 334.024 1277.61 262.409 1246.17 193.24C1225.06 146.886 1200.95 101.168 1165.65 65.6817C1098.15 -2.17619 990.677 -24.4755 897.862 10.1013C820.966 38.7521 758.87 100.932 705.395 166.018C656.631 225.37 612.147 300.867 548.931 344.918C488.613 386.906 424.992 420.073 367.128 467.214Z" fill="#665CF1" fill-opacity="0.51"/>
<path opacity="0.2" d="M756.128 358.569C711.829 394.675 668.911 435.078 641.946 486.048C602.29 560.988 602.901 655.257 643.597 724.745C678.053 783.66 736.159 822.023 785.87 867.533C847.116 923.58 896.668 991.883 943.566 1061.34C968.766 1098.65 994.176 1137.34 1030.98 1162.32C1082.09 1197.01 1150.99 1200.44 1211.16 1178.17C1271.32 1155.9 1322.83 1109.93 1359.82 1055.3C1379.5 1026.23 1395.78 993.371 1398.13 958.812C1400.61 922.246 1387.37 886.899 1390.12 850.333C1392.66 816.449 1408.79 784.399 1427.64 755.586C1452.24 717.966 1482.03 684.001 1516.11 654.695C1554.75 621.518 1598.25 595.047 1637.01 562.138C1675.77 529.23 1710.85 487.565 1722.99 437.997C1734.4 391.399 1724.37 343.619 1712.2 298.73C1692.37 225.378 1666.61 153.763 1635.17 84.5942C1614.06 38.2407 1589.95 -7.47784 1554.65 -42.9637C1487.15 -110.822 1379.68 -133.121 1286.86 -98.5441C1209.97 -69.8933 1147.87 -7.71346 1094.4 57.3725C1045.63 116.724 1001.15 192.221 937.931 236.273C877.613 278.261 813.992 311.427 756.128 358.569Z" fill="#529EFE"/>
</g>
<defs>
<linearGradient id="paint0_linear" x1="0" y1="0" x2="1838" y2="1080" gradientUnits="userSpaceOnUse">
<stop stop-color="#00579B"/>
<stop offset="0.0001" stop-color="#51A0FD"/>
<stop offset="1" stop-color="#606AEE"/>
</linearGradient>
<clipPath id="clip0">
<rect width="1920" height="1080" fill="white"/>
</clipPath>
</defs>
</svg>
